<?xml version="1.0" encoding="utf-8"?>
<!-- Generator: Adobe Illustrator 25.4.1, SVG Export Plug-In . SVG Version: 6.00 Build 0)  -->
<svg version="1.1" id="Capa_1" xmlns="http://www.w3.org/2000/svg" xmlns:xlink="http://www.w3.org/1999/xlink" x="0px" y="0px"
	 viewBox="0 0 345 87" style="enable-background:new 0 0 345 87;" xml:space="preserve">
<style type="text/css">
	.st0{fill:#F05043;}
	.st1{fill:#2C3B53;}
</style>
<g>
	<path class="st0" d="M69.3,42L69.3,42L59,24.9c-0.4-0.6-1.1-1-1.8-1H28.7c-0.7,0-1.4,0.4-1.8,1L16.6,42c-1.7,2-2.8,4.7-2.8,7.5
		c0,4.8,2.9,9,7.1,10.8c0.2,3.9,3.4,7.1,7.4,7.1c3.6,0,6.7-2.6,7.3-6.1h14.6c0.6,3.5,3.6,6.1,7.3,6.1c4,0,7.2-3.1,7.4-7.1
		c1.4-0.6,2.6-1.4,3.7-2.5c2.1-2.1,3.5-5.1,3.5-8.3C72,46.7,71,44,69.3,42z M43.8,49.3v4.1c0,0.5-0.3,0.8-0.8,0.8
		c-0.4,0-0.8-0.3-0.8-0.8v-4.1c0-0.5,0.3-0.8,0.8-0.8C43.4,48.5,43.8,48.8,43.8,49.3z M26.1,36.7l4-6.6c0.3-0.6,0.9-0.9,1.6-0.9
		h22.7c0.6,0,1.3,0.3,1.6,0.9l4,6.6c0.2,0.3,0.3,0.7,0.2,1c-0.1,0.9-0.8,1.8-1.8,1.8H27.8c-1,0-1.8-0.9-1.8-1.8
		C25.8,37.4,25.9,37.1,26.1,36.7z M24.1,46.3c2.4,0,4.3,1.9,4.3,4.3c0,0.7-0.2,1.4-0.5,2c-0.7,1.4-2.1,2.3-3.8,2.3
		c-0.3,0-0.6-0.1-1-0.1c-1.9-0.4-3.3-2.1-3.3-4.2C19.8,48.3,21.7,46.3,24.1,46.3z M43,58.4c-2.5,0-4.5-2-4.5-4.5
		c0-1.8,1.1-3.5,2.7-4.1V52c-0.5,0.5-0.8,1.2-0.8,1.9c0,1.4,1.2,2.6,2.6,2.6s2.6-1.2,2.6-2.6c0-0.7-0.3-1.3-0.7-1.8v-2.3
		c1.6,0.7,2.6,2.2,2.6,4.1C47.5,56.4,45.4,58.4,43,58.4z M62.8,54.9c-0.3,0.1-0.6,0.1-1,0.1c-1.7,0-3.1-0.9-3.8-2.3
		c-0.3-0.6-0.5-1.3-0.5-2c0-2.4,1.9-4.3,4.3-4.3c2.4,0,4.3,1.9,4.3,4.3C66.1,52.7,64.7,54.4,62.8,54.9z"/>
	<g>
		<g>
			<path class="st1" d="M104.4,40.1c0.7,1.2,1,2.5,1,4c0,2.2-0.9,4.2-2.6,5.8c-1.7,1.6-3.9,2.4-6.3,2.4H84.4V23.9h11.7
				c2.4,0,4.4,0.7,6.1,2.1c1.6,1.4,2.4,3.1,2.4,5.2c0,1.2-0.3,2.4-0.9,3.5c-0.6,1.1-1.4,2-2.4,2.7C102.7,37.9,103.7,38.9,104.4,40.1
				z M98.4,30.9c-0.2-0.3-0.3-0.7-0.6-1c-0.3-0.3-0.6-0.5-1-0.6c-0.4-0.2-0.8-0.2-1.3-0.2h-5.1v6h5.1c1,0,1.7-0.3,2.3-0.8
				c0.6-0.6,0.9-1.3,0.9-2.2C98.7,31.7,98.6,31.2,98.4,30.9z M98.2,45.8c0.6-0.6,0.9-1.4,0.9-2.3c0-0.9-0.3-1.7-0.9-2.2
				c-0.6-0.6-1.4-0.9-2.4-0.9h-5.4v6.4h5.4C96.8,46.6,97.6,46.3,98.2,45.8z"/>
			<path class="st1" d="M131.2,43h-16.6c0.2,1.5,0.8,2.6,1.8,3.5c0.9,0.8,2.1,1.2,3.6,1.2c1,0,1.9-0.2,2.7-0.7
				c0.8-0.5,1.4-1,1.9-1.8h6.3c-0.8,2.4-2.2,4.3-4.1,5.7c-2,1.4-4.2,2.1-6.7,2.1c-3.2,0-5.9-1.1-8.1-3.3c-2.2-2.2-3.2-5-3.2-8.2
				c0-1.3,0.2-2.5,0.6-3.7c0.3-1.2,0.9-2.2,1.6-3.2c0.7-0.9,1.5-1.8,2.4-2.5c0.9-0.7,2-1.2,3.1-1.6c1.2-0.4,2.4-0.6,3.7-0.6
				c2.2,0,4.1,0.5,5.9,1.6c1.7,1,3.1,2.4,4,4.2c0.9,1.8,1.4,3.7,1.4,5.8C131.4,41.8,131.4,42.4,131.2,43z M116.7,35.9
				c-0.9,0.7-1.5,1.7-1.8,3.1h10.6c-0.3-0.9-0.7-1.7-1.2-2.2c-0.5-0.6-1.2-1.1-1.8-1.4c-0.7-0.3-1.5-0.5-2.4-0.5
				C118.8,34.8,117.6,35.2,116.7,35.9z"/>
			<path class="st0" d="M141.7,50.9c-2.2-1.3-4-3.1-5.3-5.3c-1.3-2.2-1.9-4.8-1.9-7.5c0-4.2,1.4-7.8,4.2-10.6
				c2.8-2.8,6.3-4.3,10.5-4.3c3.5,0,6.4,1,9,3.1s4.1,4.8,4.8,8.2h-6.2c-0.4-1.1-0.9-2.1-1.7-2.9s-1.6-1.4-2.6-1.9
				c-1-0.5-2.1-0.7-3.3-0.7c-2.4,0-4.4,0.9-6,2.6c-1.6,1.7-2.4,3.9-2.4,6.4c0,2.5,0.8,4.7,2.4,6.4s3.6,2.5,6,2.5
				c1.8,0,3.5-0.5,4.8-1.6c1.4-1,2.3-2.5,2.8-4.3h6.1c-0.6,3.5-2.2,6.3-4.8,8.5c-2.5,2.1-5.5,3.2-9.1,3.2
				C146.5,52.9,144,52.3,141.7,50.9z"/>
			<path class="st0" d="M189.6,30.3v21.9h-4.7l-0.5-2c-2,1.7-4.4,2.6-7.1,2.6c-3.3,0-6-1.1-8.2-3.3c-2.2-2.2-3.3-5-3.3-8.3
				c0-3.3,1.1-6,3.3-8.2c2.2-2.2,4.9-3.3,8.2-3.3c2.8,0,5.2,0.9,7.2,2.7l0.6-2.1L189.6,30.3L189.6,30.3z M182.1,45.6
				c1.2-1.2,1.7-2.6,1.7-4.3s-0.6-3.2-1.7-4.3c-1.2-1.2-2.5-1.7-4.3-1.7c-1.2,0-2.1,0.3-3.1,0.8c-0.9,0.5-1.6,1.3-2.1,2.1
				c-0.5,0.9-0.7,1.9-0.7,3.1c0,1.7,0.6,3.2,1.7,4.3c1.2,1.2,2.5,1.7,4.3,1.7C179.6,47.3,180.9,46.7,182.1,45.6z"/>
			<path class="st0" d="M208.3,30.2v5.6h-2.5c-1.7,0-2.9,0.4-3.6,1.2c-0.7,0.8-1.1,2.1-1.1,3.9v11.4h-5.9V30.3h3.8l1,2.7
				c1.5-1.8,3.6-2.8,6.3-2.8L208.3,30.2L208.3,30.2z"/>
			<path class="st1" d="M213.7,50.3c-2-1.7-3-4.1-3-7.1h6.2c0,0.7,0.1,1.3,0.4,1.8c0.2,0.5,0.6,1,1,1.3c0.5,0.3,1,0.6,1.5,0.7
				c0.6,0.2,1.2,0.2,1.8,0.2c1.3,0,2.3-0.3,3.2-0.9c0.9-0.6,1.4-1.4,1.4-2.4c0-0.5-0.1-0.8-0.3-1.2s-0.5-0.6-0.7-0.8
				c-0.3-0.2-0.7-0.4-1.3-0.6s-1.1-0.4-1.5-0.5c-0.4-0.1-1-0.2-1.8-0.5l-1.4-0.3c-0.3-0.1-0.8-0.2-1.4-0.4c-0.6-0.2-1.2-0.3-1.4-0.5
				c-0.3-0.2-0.8-0.3-1.3-0.6c-0.5-0.3-1-0.5-1.3-0.8c-0.3-0.3-0.6-0.6-1-1c-0.3-0.4-0.6-0.8-0.8-1.3c-0.2-0.5-0.3-1-0.5-1.6
				c-0.1-0.6-0.2-1.2-0.2-1.8c0-2.7,0.9-4.8,2.8-6.3c1.8-1.5,4.4-2.2,7.5-2.2c3.2,0,5.7,0.8,7.5,2.4c1.8,1.6,2.7,3.9,2.7,6.7h-6.1
				c0-1.2-0.4-2.1-1.2-2.6c-0.8-0.6-1.8-0.9-3.1-0.9c-1.1,0-2,0.2-2.8,0.7c-0.8,0.5-1.2,1.1-1.2,2c0,0.4,0.1,0.7,0.3,1.1
				c0.2,0.3,0.5,0.6,0.7,0.7c0.3,0.2,0.7,0.4,1.3,0.6s1,0.3,1.4,0.5l1.8,0.4c0.9,0.2,1.5,0.4,2,0.5c0.5,0.1,1,0.3,1.8,0.6
				c0.8,0.3,1.4,0.6,1.9,0.8c0.5,0.3,1,0.6,1.6,1.1s1,0.9,1.4,1.4c0.3,0.5,0.6,1.2,0.8,1.9c0.2,0.7,0.3,1.6,0.3,2.4
				c0,2-0.5,3.7-1.5,5.1c-1,1.4-2.3,2.4-3.9,3.1c-1.6,0.6-3.4,1-5.4,1C218.4,52.8,215.7,52,213.7,50.3z"/>
			<path class="st1" d="M267.6,32.3c1.4,1.6,2.2,3.7,2.2,6.3v13.8h-5.9V39.5c0-3-1.1-4.5-3.3-4.5c-0.9,0-1.6,0.2-2.2,0.6
				c-0.6,0.4-1.1,1-1.4,1.8c-0.3,0.8-0.5,1.8-0.5,2.9v11.9h-5.8V39.5c0-3-1.1-4.5-3.2-4.5c-1.4,0-2.4,0.5-3.2,1.4
				c-0.7,0.9-1.2,2.2-1.2,4v11.9h-5.9V30.3h4.1l1.1,2.7c0.8-1,1.8-1.8,2.9-2.4c1.2-0.6,2.4-0.9,3.6-0.9c1.4,0,2.6,0.3,3.7,0.9
				s2,1.5,2.6,2.6c0.3-0.4,0.6-0.7,0.9-1c0.3-0.3,0.6-0.6,1-0.9c0.3-0.2,0.7-0.5,1.1-0.7c0.4-0.2,0.7-0.3,1.2-0.5
				c0.4-0.1,0.9-0.2,1.3-0.3c0.5-0.1,0.9-0.1,1.4-0.1C264.3,29.8,266.2,30.7,267.6,32.3z"/>
			<path class="st1" d="M297.6,30.3v21.9h-4.7l-0.5-2c-2,1.7-4.4,2.6-7.1,2.6c-3.3,0-6-1.1-8.2-3.3c-2.2-2.2-3.3-5-3.3-8.3
				c0-3.3,1.1-6,3.3-8.2s4.9-3.3,8.2-3.3c2.8,0,5.2,0.9,7.2,2.7l0.6-2.1L297.6,30.3L297.6,30.3z M290.1,45.6
				c1.2-1.2,1.7-2.6,1.7-4.3s-0.6-3.2-1.7-4.3c-1.2-1.2-2.5-1.7-4.3-1.7c-1.2,0-2.1,0.3-3.1,0.8c-0.9,0.5-1.6,1.3-2.1,2.1
				c-0.5,0.9-0.7,1.9-0.7,3.1c0,1.7,0.6,3.2,1.7,4.3c1.2,1.2,2.5,1.7,4.3,1.7C287.5,47.3,288.9,46.7,290.1,45.6z"/>
			<path class="st1" d="M316.3,30.2v5.6h-2.5c-1.7,0-2.9,0.4-3.6,1.2c-0.7,0.8-1.1,2.1-1.1,3.9v11.4h-5.9V30.3h3.8l1,2.7
				c1.5-1.8,3.6-2.8,6.3-2.8L316.3,30.2L316.3,30.2z"/>
			<path class="st1" d="M334,47v5.3h-4.2c-1.6,0-3-0.3-4.1-0.9s-2.1-1.5-2.7-2.7c-0.6-1.2-0.9-2.6-0.9-4.2v-9.3h-4v-1.3l8.7-9.2h1.1
				v5.7h6v4.7H328v8.6c0,1,0.3,1.9,0.9,2.5c0.6,0.6,1.4,0.9,2.5,0.9L334,47L334,47z"/>
		</g>
		<g>
			<path class="st1" d="M96.8,58.9l-2.8,8.9h-0.8L90.5,61L88,67.8h-0.8l-2.9-8.9h0.9l2.4,7.5l2.7-7.3h0.3l2.8,7.3l2.3-7.5H96.8z"/>
			<path class="st1" d="M105.9,67v0.9h-5.1v-8.9h5v0.9h-4.1v3.1h3.7v0.8h-3.7V67L105.9,67L105.9,67z"/>
			<path class="st1" d="M125.7,67.9l-1.3-7.4l-3.2,7.1h-0.2l-3.2-7.1l-1.3,7.4h-0.9l1.6-8.9h0.9l3.1,7l3.1-7h0.9l1.5,8.9H125.7z"/>
			<path class="st1" d="M136.7,65.6h-4.5l-0.9,2.3h-0.9l3.7-8.9h0.8l3.8,8.9h-1L136.7,65.6z M132.5,64.8h3.8l-2-4.6L132.5,64.8z"/>
			<path class="st1" d="M144.8,63.6h-1.3v4.2h-0.9v-8.9h0.9v3.9h1.3l3.1-3.9h1.2l-3.4,4.3l3.7,4.7h-1.2L144.8,63.6z"/>
			<path class="st1" d="M158.3,67v0.9h-5.1v-8.9h5v0.9h-4.1v3.1h3.7v0.8h-3.7V67L158.3,67L158.3,67z"/>
			<path class="st1" d="M168.7,58.9h0.9v8.9h-0.9V58.9z"/>
			<path class="st1" d="M180,59.8h-2.8v8.1h-0.9v-8.1h-2.8v-0.9h6.4L180,59.8L180,59.8z"/>
			<path class="st1" d="M195.2,67v0.9h-5.1v-8.9h5v0.9H191v3.1h3.7v0.8H191V67L195.2,67L195.2,67z"/>
			<path class="st1" d="M205.2,65.6h-4.5l-0.9,2.3h-0.9l3.7-8.9h0.8l3.8,8.9h-1L205.2,65.6z M201.1,64.8h3.8l-2-4.6L201.1,64.8z"/>
			<path class="st1" d="M211.4,67.2c-0.6-0.5-0.9-1.2-0.9-2.1h0.9c0,0.6,0.2,1,0.6,1.4c0.4,0.3,1,0.5,1.7,0.5c0.6,0,1.2-0.2,1.6-0.5
				c0.4-0.3,0.6-0.7,0.6-1.3c0-0.2,0-0.3-0.1-0.5s-0.1-0.2-0.2-0.3c-0.1-0.1-0.2-0.2-0.3-0.3c-0.1-0.1-0.2-0.2-0.3-0.2
				c-0.1-0.1-0.2-0.1-0.5-0.2c-0.2-0.1-0.3-0.1-0.5-0.1c-0.1-0.1-0.3-0.1-0.5-0.1c-0.3-0.1-0.5-0.1-0.6-0.1
				c-0.1-0.1-0.3-0.1-0.6-0.2c-0.2-0.1-0.4-0.2-0.6-0.2c-0.1-0.1-0.3-0.2-0.5-0.3c-0.2-0.1-0.3-0.2-0.4-0.4
				c-0.1-0.1-0.2-0.3-0.2-0.5s-0.1-0.4-0.1-0.7c0-0.7,0.3-1.3,0.8-1.8c0.5-0.5,1.3-0.7,2.2-0.7c0.5,0,0.9,0.1,1.2,0.2
				c0.3,0.1,0.7,0.3,0.9,0.5c0.2,0.2,0.5,0.5,0.6,0.8c0.1,0.3,0.2,0.7,0.2,1.1h-0.9c0-0.5-0.2-1-0.6-1.3c-0.4-0.3-0.9-0.5-1.5-0.5
				c-0.6,0-1.1,0.1-1.5,0.4c-0.4,0.3-0.6,0.6-0.6,1.2c0,0.1,0,0.3,0.1,0.4c0.1,0.1,0.1,0.2,0.2,0.3c0.1,0.1,0.1,0.2,0.2,0.2
				c0.1,0.1,0.2,0.1,0.3,0.2c0.1,0.1,0.2,0.1,0.3,0.2c0.1,0.1,0.2,0.1,0.4,0.1c0.2,0.1,0.3,0.1,0.4,0.1c0.1,0,0.2,0.1,0.5,0.1
				c0.3,0.1,0.5,0.1,0.6,0.2c0.2,0.1,0.3,0.1,0.6,0.2c0.2,0.1,0.5,0.2,0.6,0.2c0.1,0.1,0.3,0.2,0.5,0.3s0.3,0.3,0.4,0.4
				c0.1,0.2,0.2,0.3,0.2,0.5c0.1,0.2,0.1,0.5,0.1,0.7c0,0.8-0.3,1.4-0.9,1.9c-0.6,0.5-1.3,0.7-2.2,0.7
				C212.7,68,211.9,67.7,211.4,67.2z"/>
			<path class="st1" d="M224.1,64.3v3.6h-0.9v-3.6l-3.3-5.4h1l2.8,4.5l2.8-4.5h1L224.1,64.3z"/>
			<path class="st1" d="M231.4,66.7h1v1.2h-1V66.7z M231.5,58.7h0.9v6.9h-0.9V58.7z"/>
		</g>
	</g>
</g>
</svg>
